# xmcd
#
# Track frame offsets:
#	150
#	20310
#	41290
#	59212
#	81870
#	106897
#	125217
#	154090
#	173250
#	198927
#	221367
#	240885
#
# Disc length: 3485
#
# Revision: 1
# Processed by: cddbd v1.5.1PL0 Copyright (c) Steve Scherf et al.
# Submitted via: CDex 1.51
# Normalized: r0:TRMNUM
#
DISCID=920d9b0c
DTITLE=New Orleans Night Owls of Melbourne - you call it madness but we call it love
DYEAR=1900
DGENRE=Jazz
TTITLE0=Runnin' Wild
TTITLE1=When My Dreamboat Comes Home
TTITLE2=Bless You (For Being An Angel)
TTITLE3=Fidgety Feet
TTITLE4=If I Give My Heart To You
TTITLE5=We'll Meet Again
TTITLE6=Blue Horizon
TTITLE7=Jesus Keeps Me Singing
TTITLE8=You Call It Madness (But We Call It Love)
TTITLE9=Willie's Lowdown Boogie
TTITLE10=Oh! How I Miss You Tonight
TTITLE11=Painting The Clouds With Sunshine
EXTD=
EXTT0=
EXTT1=
EXTT2=
EXTT3=
EXTT4=
EXTT5=
EXTT6=
EXTT7=
EXTT8=
EXTT9=
EXTT10=
EXTT11=
PLAYORDER=
